<svg width="70" height="70" viewBox="0 0 70 70" fill="none" xmlns="http://www.w3.org/2000/svg">
<g filter="url(#filter0_b_2_10)">
<circle cx="35" cy="35" r="35" fill="#B2DAFF" fill-opacity="0.74"/>
</g>
<circle cx="35" cy="35" r="30" fill="white"/>
<path d="M21.4142 33.5858C20.6332 34.3668 20.6332 35.6332 21.4142 36.4142L41.0362 56.0362C41.8363 56.8363 43.1404 56.8139 43.9125 55.9866L44.6904 55.1531C45.4222 54.369 45.4053 53.1473 44.652 52.3838L28.886 36.4047C28.1175 35.6259 28.1175 34.3741 28.886 33.5953L44.652 17.6162C45.4053 16.8527 45.4222 15.631 44.6904 14.8469L43.9125 14.0134C43.1404 13.1861 41.8363 13.1637 41.0362 13.9638L21.4142 33.5858Z" fill="#00A1DC"/>
<defs>
<filter id="filter0_b_2_10" x="-4" y="-4" width="78" height="78" filterUnits="userSpaceOnUse" color-interpolation-filters="sRGB">
<feFlood flood-opacity="0" result="BackgroundImageFix"/>
<feGaussianBlur in="BackgroundImageFix" stdDeviation="2"/>
<feComposite in2="SourceAlpha" operator="in" result="effect1_backgroundBlur_2_10"/>
<feBlend mode="normal" in="SourceGraphic" in2="effect1_backgroundBlur_2_10" result="shape"/>
</filter>
</defs>
</svg>
