<svg width="32" height="32" viewBox="0 0 32 32" fill="none" xmlns="http://www.w3.org/2000/svg">
<path opacity="0.4" fill-rule="evenodd" clip-rule="evenodd" d="M32 16C32 4.1879 27.8121 -1.83059e-07 16 -6.99382e-07C4.18626 -1.21578e-06 -1.83059e-07 4.1879 -6.99382e-07 16C-1.21578e-06 27.8137 4.18626 32 16 32C27.8121 32 32 27.8137 32 16Z" fill="white"/>
<path d="M12.9358 20.6791C12.3779 21.0598 12.2335 21.8294 12.6175 22.389C12.9998 22.9503 13.7662 23.093 14.3274 22.7074C16.6642 21.1074 20.583 18.106 20.583 15.9989C20.583 13.8934 16.6642 10.892 14.3274 9.29201C13.7662 8.90637 12.9998 9.04914 12.6175 9.61037C12.4714 9.82371 12.4009 10.0649 12.4009 10.3045C12.4009 10.6967 12.5879 11.0824 12.9358 11.3203C15.5401 13.1058 17.9656 15.3146 18.1248 15.9497C17.9656 16.6816 15.5401 18.892 12.9358 20.6791Z" fill="white"/>
</svg>
