<svg width="133" height="135" viewBox="0 0 133 135" fill="none" xmlns="http://www.w3.org/2000/svg">
<path d="M3.91797 67.0921C3.91797 84.8861 10.7178 101.951 22.8216 114.533C34.9254 127.116 51.3417 134.184 68.4591 134.184C85.5765 134.184 101.993 127.116 114.097 114.533C126.2 101.951 133 84.8861 133 67.0921C133 49.2981 126.2 32.233 114.097 19.6507C101.993 7.0685 85.5765 -0.00012207 68.4591 -0.00012207C51.3417 -0.00012207 34.9254 7.0685 22.8216 19.6507C10.7178 32.233 3.91797 49.2981 3.91797 67.0921Z" fill="#D9EDFF"/>
<path d="M50.0135 53.937L39.4691 64.8982C39.1268 65.2536 38.6908 65.4955 38.2163 65.5935C37.7418 65.6915 37.25 65.6411 36.803 65.4487C36.356 65.2563 35.9739 64.9306 35.7049 64.5126C35.4359 64.0945 35.2921 63.603 35.2917 63.1001V53.937H24.3487C22.7872 53.937 21.2896 53.2922 20.1854 52.1443C19.0813 50.9965 18.4609 49.4398 18.4609 47.8165V16.1859C18.4609 14.5625 19.0812 13.0055 20.1853 11.8575C21.2895 10.7094 22.787 10.0642 24.3487 10.0637H68.6126C70.1743 10.0642 71.6719 10.7094 72.776 11.8575C73.8801 13.0055 74.5004 14.5625 74.5004 16.1859V47.8165C74.5004 48.6203 74.3481 49.4161 74.0522 50.1587C73.7563 50.9013 73.3227 51.576 72.7759 52.1443C72.2292 52.7127 71.5801 53.1635 70.8658 53.4711C70.1515 53.7787 69.3858 53.937 68.6126 53.937H50.0135Z" fill="white" stroke="#020064" stroke-width="1.50648" stroke-linecap="round" stroke-linejoin="round"/>
<path d="M58.9582 41.3083C59.3253 40.9259 59.5315 40.4078 59.5315 39.8675C59.5315 39.3273 59.3253 38.8091 58.9582 38.4267L53.4141 32.6635C53.2306 32.4723 53.1275 32.2132 53.1275 31.9431C53.1275 31.673 53.2306 31.4139 53.4141 31.2227L58.9582 25.4595C59.3253 25.0771 59.5315 24.5589 59.5315 24.0187C59.5315 23.4784 59.3253 22.9602 58.9582 22.5779L55.4924 18.975C55.1245 18.5934 54.626 18.379 54.1063 18.379C53.5866 18.379 53.0882 18.5934 52.7203 18.975L47.1762 24.7382C47.0854 24.8331 46.9774 24.9084 46.8585 24.9598C46.7395 25.0112 46.612 25.0376 46.4832 25.0376C46.3544 25.0376 46.2269 25.0112 46.108 24.9598C45.9891 24.9084 45.8811 24.8331 45.7902 24.7382L40.2477 18.975C39.8799 18.5934 39.3814 18.379 38.8617 18.379C38.342 18.379 37.8435 18.5934 37.4757 18.975L34.0098 22.5779C33.6427 22.9602 33.4365 23.4784 33.4365 24.0187C33.4365 24.5589 33.6427 25.0771 34.0098 25.4595L39.5539 31.2227C39.7375 31.4139 39.8406 31.673 39.8406 31.9431C39.8406 32.2132 39.7375 32.4723 39.5539 32.6635L34.0098 38.4267C33.6427 38.8091 33.4365 39.3273 33.4365 39.8675C33.4365 40.4078 33.6427 40.9259 34.0098 41.3083L37.4725 44.9095C37.8403 45.2911 38.3388 45.5055 38.8585 45.5055C39.3782 45.5055 39.8767 45.2911 40.2445 44.9095L45.787 39.1463C45.9709 38.9555 46.2201 38.8483 46.48 38.8483C46.7398 38.8483 46.9891 38.9555 47.173 39.1463L52.7171 44.9095C53.0849 45.2911 53.5834 45.5055 54.1031 45.5055C54.6228 45.5055 55.1213 45.2911 55.4891 44.9095L58.9582 41.3083Z" fill="#B0D9FF" stroke="#020064" stroke-width="1.50648" stroke-linecap="round" stroke-linejoin="round"/>
<path d="M79.3838 48.7253L89.833 59.5892C90.1712 59.9444 90.6036 60.1868 91.0749 60.2856C91.5462 60.3843 92.0352 60.3349 92.4794 60.1436C92.9235 59.9523 93.3029 59.6278 93.5689 59.2115C93.835 58.7953 93.9758 58.306 93.9733 57.8062V48.7253H112.529C114.077 48.7253 115.561 48.0861 116.656 46.9484C117.75 45.8106 118.365 44.2675 118.365 42.6585V11.3113C118.365 9.7023 117.75 8.15918 116.656 7.02144C115.561 5.88369 114.077 5.24451 112.529 5.24451H68.6506C67.1027 5.24451 65.6183 5.88369 64.5238 7.02144C63.4293 8.15918 62.8145 9.7023 62.8145 11.3113V42.6585C62.8145 44.2675 63.4293 45.8106 64.5238 46.9484C65.6183 48.0861 67.1027 48.7253 68.6506 48.7253H79.3838Z" fill="white" stroke="#020064" stroke-width="1.50648" stroke-linecap="round" stroke-linejoin="round"/>
<path d="M106.069 21.4578C106.555 21.0408 106.862 20.4401 106.923 19.7878C106.983 19.1355 106.792 18.4849 106.392 17.979L103.749 14.6395C103.348 14.1341 102.77 13.8148 102.143 13.7519C101.516 13.689 100.89 13.8876 100.404 14.304L85.2609 27.2562L81.8628 22.9623C81.4619 22.4569 80.8844 22.1376 80.2572 22.0747C79.6299 22.0118 79.0044 22.2104 78.5179 22.6268L75.3054 25.3743C74.8191 25.7913 74.5119 26.3919 74.4514 27.0442C74.3909 27.6965 74.582 28.3471 74.9827 28.853L78.3808 33.1469L82.534 38.3935C82.9349 38.8989 83.5124 39.2182 84.1396 39.2811C84.7669 39.344 85.3925 39.1454 85.8789 38.729L90.9276 34.4116L106.069 21.4578Z" fill="#B0D9FF" stroke="#020064" stroke-width="1.50648" stroke-linecap="round" stroke-linejoin="round"/>
<path d="M1 96.3834C1 103.593 3.75513 110.507 8.65929 115.605C13.5635 120.704 20.2149 123.568 27.1505 123.568C34.086 123.568 40.7375 120.704 45.6416 115.605C50.5458 110.507 53.3009 103.593 53.3009 96.3834C53.3009 89.1738 50.5458 82.2594 45.6416 77.1614C40.7375 72.0634 34.086 69.1993 27.1505 69.1993C20.2149 69.1993 13.5635 72.0634 8.65929 77.1614C3.75513 82.2594 1 89.1738 1 96.3834Z" fill="#B0D9FF" stroke="#020064" stroke-width="1.50648" stroke-linecap="round" stroke-linejoin="round"/>
<path d="M18.1748 91.2872C18.1748 92.0982 18.4847 92.8759 19.0363 93.4494C19.588 94.0228 20.3361 94.3449 21.1163 94.3449C21.8964 94.3449 22.6446 94.0228 23.1962 93.4494C23.7478 92.8759 24.0577 92.0982 24.0577 91.2872C24.0577 90.4763 23.7478 89.6985 23.1962 89.1251C22.6446 88.5516 21.8964 88.2295 21.1163 88.2295C20.3361 88.2295 19.588 88.5516 19.0363 89.1251C18.4847 89.6985 18.1748 90.4763 18.1748 91.2872Z" fill="#020064"/>
<path d="M38.0908 91.2872C38.0908 92.0982 38.4007 92.8759 38.9524 93.4494C39.504 94.0228 40.2522 94.3449 41.0323 94.3449C41.8124 94.3449 42.5606 94.0228 43.1122 93.4494C43.6638 92.8759 43.9737 92.0982 43.9737 91.2872C43.9737 90.4763 43.6638 89.6985 43.1122 89.1251C42.5606 88.5516 41.8124 88.2295 41.0323 88.2295C40.2522 88.2295 39.504 88.5516 38.9524 89.1251C38.4007 89.6985 38.0908 90.4763 38.0908 91.2872Z" fill="#020064"/>
<path d="M21.8682 112.516C21.9002 110 22.8842 107.598 24.6072 105.83C26.3302 104.063 28.6535 103.072 31.0742 103.072C33.4948 103.072 35.8181 104.063 37.5411 105.83C39.2641 107.598 40.2481 110 40.2801 112.516H21.8682Z" fill="white" stroke="#020064" stroke-width="1.50648" stroke-linecap="round" stroke-linejoin="round"/>
<path d="M77.998 90.6902C77.998 97.8999 80.7532 104.814 85.6573 109.912C90.5615 115.01 97.213 117.874 104.149 117.874C111.084 117.874 117.736 115.01 122.64 109.912C127.544 104.814 130.299 97.8999 130.299 90.6902C130.299 83.4805 127.544 76.5661 122.64 71.4681C117.736 66.3701 111.084 63.5061 104.149 63.5061C97.213 63.5061 90.5615 66.3701 85.6573 71.4681C80.7532 76.5661 77.998 83.4805 77.998 90.6902Z" fill="white" stroke="#020064" stroke-width="1.50648" stroke-linecap="round" stroke-linejoin="round"/>
<path d="M107.244 85.5939C107.244 86.4048 107.554 87.1826 108.106 87.756C108.657 88.3294 109.405 88.6516 110.186 88.6516C110.966 88.6516 111.714 88.3294 112.266 87.756C112.817 87.1826 113.127 86.4048 113.127 85.5939C113.127 84.7829 112.817 84.0052 112.266 83.4317C111.714 82.8583 110.966 82.5361 110.186 82.5361C109.405 82.5361 108.657 82.8583 108.106 83.4317C107.554 84.0052 107.244 84.7829 107.244 85.5939Z" fill="#020064"/>
<path d="M87.3271 85.5939C87.3271 86.4048 87.637 87.1826 88.1887 87.756C88.7403 88.3294 89.4885 88.6516 90.2686 88.6516C91.0487 88.6516 91.7969 88.3294 92.3485 87.756C92.9002 87.1826 93.2101 86.4048 93.2101 85.5939C93.2101 84.7829 92.9002 84.0052 92.3485 83.4317C91.7969 82.8583 91.0487 82.5361 90.2686 82.5361C89.4885 82.5361 88.7403 82.8583 88.1887 83.4317C87.637 84.0052 87.3271 84.7829 87.3271 85.5939Z" fill="#020064"/>
<path d="M109.436 97.2549C109.452 98.5223 109.226 99.7804 108.771 100.956C108.315 102.132 107.64 103.202 106.783 104.104C105.927 105.006 104.907 105.723 103.782 106.212C102.657 106.701 101.45 106.952 100.23 106.952C99.0109 106.952 97.8038 106.701 96.6788 106.212C95.5539 105.723 94.5335 105.006 93.6771 104.104C92.8206 103.202 92.1451 102.132 91.6897 100.956C91.2343 99.7804 91.0081 98.5223 91.0242 97.2549H109.436Z" fill="#B0D9FF" stroke="#020064" stroke-width="1.50648" stroke-linecap="round" stroke-linejoin="round"/>
</svg>
