<svg width="130" height="134" viewBox="0 0 130 134" fill="none" xmlns="http://www.w3.org/2000/svg">
<path d="M0 68.063C0 85.3021 6.84819 101.835 19.0381 114.025C31.2279 126.215 47.7609 133.063 65 133.063C82.2391 133.063 98.7721 126.215 110.962 114.025C123.152 101.835 130 85.3021 130 68.063C130 50.8239 123.152 34.2909 110.962 22.101C98.7721 9.91118 82.2391 3.06299 65 3.06299C47.7609 3.06299 31.2279 9.91118 19.0381 22.101C6.84819 34.2909 0 50.8239 0 68.063Z" fill="#AFEAFF"/>
<path d="M45.0752 122.24C45.0752 122.886 47.4721 123.506 51.7385 123.964C56.005 124.421 61.7915 124.677 67.8252 124.677C73.8589 124.677 79.6454 124.421 83.9119 123.964C88.1783 123.506 90.5752 122.886 90.5752 122.24C90.5752 121.594 88.1783 120.974 83.9119 120.516C79.6454 120.059 73.8589 119.802 67.8252 119.802C61.7915 119.802 56.005 120.059 51.7385 120.516C47.4721 120.974 45.0752 121.594 45.0752 122.24Z" fill="#00C7FF"/>
<path d="M39.4189 104.579H43.7804C44.3588 104.579 44.9135 104.35 45.3225 103.941C45.7314 103.532 45.9612 102.977 45.9612 102.399V77.32C45.9612 76.7417 45.7314 76.187 45.3225 75.778C44.9135 75.369 44.3588 75.1393 43.7804 75.1393H39.4189V104.579Z" fill="white" stroke="#020064" stroke-width="1.50648" stroke-linecap="round" stroke-linejoin="round"/>
<path d="M71.0415 71.868C71.854 63.7203 72.9346 46.2434 66.134 46.2434C64.8329 46.2434 63.5851 46.7603 62.665 47.6803C61.745 48.6003 61.2281 49.8482 61.2281 51.1493V52.7857C61.2281 64.7798 56.0281 77.3232 45.9531 77.3232V102.402H47.2401C53.5289 102.402 56.5026 106.763 67.7704 106.763H86.8528C88.0095 106.763 89.1189 106.304 89.9368 105.486C90.7547 104.668 91.2142 103.559 91.2142 102.402C91.2142 101.245 90.7547 100.136 89.9368 99.3177C89.1189 98.4998 88.0095 98.0403 86.8528 98.0403H89.0335C90.1902 98.0403 91.2996 97.5808 92.1175 96.7628C92.9355 95.9449 93.395 94.8355 93.395 93.6788C93.395 92.522 92.9355 91.4127 92.1175 90.5947C91.2996 89.7768 90.1902 89.3173 89.0335 89.3173H91.2143C92.371 89.3173 93.4804 88.8578 94.2983 88.0398C95.1162 87.2219 95.5758 86.1125 95.5758 84.9558C95.5758 83.799 95.1162 82.6897 94.2983 81.8717C93.4804 81.0538 92.371 80.5943 91.2143 80.5943H93.395C94.5517 80.5943 95.6611 80.1348 96.479 79.3168C97.297 78.4989 97.7565 77.3895 97.7565 76.2328C97.7565 75.076 97.297 73.9667 96.479 73.1487C95.6611 72.3308 94.5517 71.8713 93.395 71.8713L71.0415 71.868Z" fill="white"/>
<path d="M66.6797 71.8677H71.0412" stroke="#020064" stroke-width="1.50648" stroke-linecap="round" stroke-linejoin="round"/>
<path d="M86.8526 98.0369H84.6719" stroke="#020064" stroke-width="1.50648" stroke-linecap="round" stroke-linejoin="round"/>
<path d="M89.0323 89.3142H86.8516" stroke="#020064" stroke-width="1.50648" stroke-linecap="round" stroke-linejoin="round"/>
<path d="M91.214 80.5906H89.0332" stroke="#020064" stroke-width="1.50648" stroke-linecap="round" stroke-linejoin="round"/>
<path d="M71.0415 71.868C71.854 63.7203 72.9346 46.2434 66.134 46.2434C64.8329 46.2434 63.5851 46.7603 62.665 47.6803C61.745 48.6003 61.2281 49.8482 61.2281 51.1493V52.7857C61.2281 64.7798 56.0281 77.3232 45.9531 77.3232V102.402H47.2401C53.5289 102.402 56.5026 106.763 67.7704 106.763H86.8528C88.0095 106.763 89.1189 106.304 89.9368 105.486C90.7547 104.668 91.2142 103.559 91.2142 102.402C91.2142 101.245 90.7547 100.136 89.9368 99.3177C89.1189 98.4998 88.0095 98.0403 86.8528 98.0403H89.0335C90.1902 98.0403 91.2996 97.5808 92.1175 96.7628C92.9355 95.9449 93.395 94.8355 93.395 93.6788C93.395 92.522 92.9355 91.4127 92.1175 90.5947C91.2996 89.7768 90.1902 89.3173 89.0335 89.3173H91.2143C92.371 89.3173 93.4804 88.8578 94.2983 88.0398C95.1162 87.2219 95.5758 86.1125 95.5758 84.9558C95.5758 83.799 95.1162 82.6897 94.2983 81.8717C93.4804 81.0538 92.371 80.5943 91.2143 80.5943H93.395C94.5517 80.5943 95.6611 80.1348 96.479 79.3168C97.297 78.4989 97.7565 77.3895 97.7565 76.2328C97.7565 75.076 97.297 73.9667 96.479 73.1487C95.6611 72.3308 94.5517 71.8713 93.395 71.8713L71.0415 71.868Z" stroke="#020064" stroke-width="1.50648" stroke-linecap="round" stroke-linejoin="round"/>
<path d="M24.1543 72.9575H39.4195V106.761H24.1543V72.9575Z" fill="#00C7FF"/>
<path d="M24.1543 72.9575H39.4195V106.761H24.1543V72.9575Z" stroke="#020064" stroke-width="1.50648" stroke-linecap="round" stroke-linejoin="round"/>
<path d="M66.8903 2.02879L70.228 8.79042C70.3596 9.05928 70.555 9.29183 70.7972 9.46774C71.0394 9.64365 71.321 9.75757 71.6174 9.79954L79.081 10.885C79.4216 10.9345 79.7415 11.0783 80.0047 11.3002C80.2678 11.522 80.4636 11.813 80.5699 12.1403C80.6763 12.4677 80.6889 12.8182 80.6064 13.1523C80.5239 13.4864 80.3496 13.7908 80.1032 14.031L74.7017 19.296C74.4892 19.5044 74.3302 19.7609 74.238 20.0437C74.1458 20.3266 74.1231 20.6275 74.1719 20.921L75.4459 28.357C75.5061 28.6969 75.4696 29.0467 75.3406 29.3668C75.2117 29.6869 74.9954 29.9644 74.7165 30.1676C74.4376 30.3708 74.1072 30.4916 73.763 30.5163C73.4188 30.5409 73.0746 30.4684 72.7695 30.307L66.094 26.7938C65.8292 26.6544 65.5345 26.5816 65.2352 26.5816C64.936 26.5816 64.6412 26.6544 64.3764 26.7938L57.7009 30.3038C57.3959 30.4652 57.0517 30.5377 56.7074 30.513C56.3632 30.4884 56.0328 30.3676 55.7539 30.1644C55.475 29.9611 55.2588 29.6837 55.1298 29.3636C55.0008 29.0435 54.9644 28.6936 55.0245 28.3538L56.2985 20.9178C56.3478 20.6243 56.3253 20.3232 56.233 20.0403C56.1408 19.7573 55.9815 19.5009 55.7688 19.2928L50.3754 14.0245C50.1289 13.7843 49.9546 13.4799 49.8721 13.1458C49.7896 12.8117 49.8023 12.4612 49.9086 12.1338C50.015 11.8065 50.2108 11.5155 50.4739 11.2937C50.737 11.0718 51.0569 10.928 51.3975 10.8785L58.8612 9.79304C59.1575 9.75107 59.4391 9.63715 59.6813 9.46124C59.9235 9.28533 60.1189 9.05278 60.2505 8.78392L63.5818 2.02879C63.734 1.72 63.9696 1.45999 64.262 1.27817C64.5543 1.09636 64.8918 1 65.236 1C65.5803 1 65.9177 1.09636 66.2101 1.27817C66.5024 1.45999 66.738 1.72 66.8903 2.02879Z" fill="#00C7FF"/>
<path d="M66.8903 2.02879L70.228 8.79042C70.3596 9.05928 70.555 9.29183 70.7972 9.46774C71.0394 9.64365 71.321 9.75757 71.6174 9.79954L79.081 10.885C79.4216 10.9345 79.7415 11.0783 80.0047 11.3002C80.2678 11.522 80.4636 11.813 80.5699 12.1403C80.6763 12.4677 80.6889 12.8182 80.6064 13.1523C80.5239 13.4864 80.3496 13.7908 80.1032 14.031L74.7017 19.296C74.4892 19.5044 74.3302 19.7609 74.238 20.0437C74.1458 20.3266 74.1231 20.6275 74.1719 20.921L75.4459 28.357C75.5061 28.6969 75.4696 29.0467 75.3406 29.3668C75.2117 29.6869 74.9954 29.9644 74.7165 30.1676C74.4376 30.3708 74.1072 30.4916 73.763 30.5163C73.4188 30.5409 73.0746 30.4684 72.7695 30.307L66.094 26.7938C65.8292 26.6545 65.5345 26.5816 65.2352 26.5816C64.936 26.5816 64.6412 26.6545 64.3764 26.7938L57.7009 30.3038C57.3959 30.4652 57.0517 30.5377 56.7074 30.513C56.3632 30.4884 56.0328 30.3676 55.7539 30.1644C55.475 29.9611 55.2588 29.6837 55.1298 29.3636C55.0008 29.0435 54.9644 28.6936 55.0245 28.3538L56.2985 20.9178C56.3478 20.6243 56.3253 20.3232 56.233 20.0403C56.1408 19.7573 55.9815 19.5009 55.7688 19.2928L50.3754 14.0245C50.1289 13.7843 49.9546 13.4799 49.8721 13.1458C49.7896 12.8117 49.8023 12.4612 49.9086 12.1338C50.015 11.8065 50.2108 11.5155 50.4739 11.2937C50.737 11.0718 51.0569 10.928 51.3975 10.8785L58.8612 9.79304C59.1575 9.75107 59.4391 9.63715 59.6813 9.46124C59.9235 9.28533 60.1189 9.05278 60.2505 8.78392L63.5818 2.02879C63.734 1.72 63.9696 1.45999 64.262 1.27817C64.5543 1.09636 64.8918 1 65.236 1C65.5803 1 65.9177 1.09636 66.2101 1.27817C66.5024 1.45999 66.738 1.72 66.8903 2.02879V2.02879Z" stroke="#020064" stroke-width="1.50648" stroke-linecap="round" stroke-linejoin="round"/>
<path d="M28.39 16.6161L33.6647 19.9392C33.8738 20.0715 34.112 20.1507 34.3587 20.1699C34.6054 20.1892 34.853 20.1479 35.0801 20.0497L40.8098 17.5878C41.0713 17.4752 41.3591 17.4381 41.6406 17.4806C41.9221 17.5232 42.186 17.6437 42.4025 17.8286C42.619 18.0135 42.7794 18.2553 42.8656 18.5267C42.9517 18.798 42.9601 19.0881 42.8898 19.3639L41.3591 25.4089C41.298 25.6481 41.2957 25.8984 41.3523 26.1386C41.4089 26.3789 41.5227 26.6018 41.6841 26.7886L45.797 31.4767C45.9847 31.6908 46.1087 31.9531 46.1551 32.234C46.2015 32.5149 46.1684 32.8031 46.0595 33.0662C45.9507 33.3292 45.7704 33.5566 45.539 33.7225C45.3077 33.8885 45.0345 33.9864 44.7505 34.0052L38.53 34.4163C38.2831 34.4328 38.044 34.509 37.8331 34.6384C37.6222 34.7677 37.4459 34.9464 37.3193 35.1589L34.1311 40.5214C33.9857 40.7662 33.7747 40.9654 33.5219 41.0964C33.2692 41.2275 32.9848 41.2851 32.701 41.2627C32.4171 41.2404 32.1452 41.139 31.9161 40.9701C31.6869 40.8012 31.5096 40.5715 31.4043 40.3069L29.0887 34.5171C28.9974 34.2873 28.8514 34.0833 28.6634 33.9227C28.4753 33.7621 28.251 33.6499 28.0097 33.5957L21.9371 32.2161C21.6596 32.1533 21.4052 32.0142 21.2027 31.8143C21.0002 31.6145 20.8576 31.362 20.7912 31.0854C20.7247 30.8088 20.737 30.5191 20.8267 30.2491C20.9163 29.979 21.0798 29.7395 21.2985 29.5576L26.089 25.5666C26.2794 25.4088 26.4285 25.2068 26.5231 24.9782C26.6177 24.7497 26.655 24.5015 26.6317 24.2552L26.0613 18.0461C26.0354 17.763 26.0891 17.4784 26.2163 17.2243C26.3436 16.9701 26.5394 16.7567 26.7816 16.6079C27.0238 16.4592 27.3027 16.3811 27.5869 16.3826C27.8711 16.384 28.1493 16.4649 28.39 16.6161Z" fill="#00C7FF"/>
<path d="M28.39 16.6161L33.6647 19.9392C33.8738 20.0715 34.112 20.1507 34.3587 20.1699C34.6054 20.1892 34.853 20.1479 35.0801 20.0497L40.8098 17.5878C41.0713 17.4752 41.3591 17.4381 41.6406 17.4806C41.9221 17.5232 42.186 17.6437 42.4025 17.8286C42.619 18.0135 42.7794 18.2553 42.8656 18.5267C42.9517 18.798 42.9601 19.0881 42.8898 19.3639L41.3591 25.4089C41.298 25.6481 41.2957 25.8984 41.3523 26.1386C41.4089 26.3789 41.5227 26.6018 41.6841 26.7886L45.797 31.4767C45.9847 31.6908 46.1087 31.9531 46.1551 32.234C46.2015 32.5149 46.1684 32.8031 46.0595 33.0662C45.9507 33.3292 45.7704 33.5566 45.539 33.7225C45.3077 33.8885 45.0345 33.9864 44.7505 34.0052L38.53 34.4163C38.2831 34.4328 38.044 34.509 37.8331 34.6384C37.6222 34.7677 37.4459 34.9464 37.3193 35.1589L34.1311 40.5214C33.9857 40.7662 33.7747 40.9654 33.5219 41.0964C33.2692 41.2275 32.9848 41.2851 32.701 41.2627C32.4171 41.2404 32.1452 41.139 31.9161 40.9701C31.6869 40.8012 31.5096 40.5715 31.4043 40.3069L29.0887 34.5171C28.9974 34.2873 28.8514 34.0833 28.6634 33.9227C28.4753 33.7621 28.251 33.6499 28.0097 33.5957L21.9371 32.2161C21.6596 32.1533 21.4052 32.0142 21.2027 31.8143C21.0002 31.6145 20.8576 31.362 20.7912 31.0854C20.7247 30.8088 20.737 30.5191 20.8267 30.249C20.9163 29.979 21.0798 29.7395 21.2985 29.5576L26.089 25.5666C26.2794 25.4088 26.4285 25.2068 26.5231 24.9782C26.6177 24.7497 26.655 24.5015 26.6317 24.2552L26.0613 18.0461C26.0354 17.763 26.0891 17.4784 26.2163 17.2243C26.3436 16.9701 26.5394 16.7567 26.7816 16.6079C27.0238 16.4592 27.3027 16.3811 27.5869 16.3826C27.8711 16.384 28.1493 16.4649 28.39 16.6161V16.6161Z" stroke="#020064" stroke-width="1.50648" stroke-linecap="round" stroke-linejoin="round"/>
<path d="M7.75489 46.9602L12.5324 47.2039C12.7219 47.2135 12.9109 47.1768 13.083 47.0969C13.2552 47.0171 13.4053 46.8965 13.5204 46.7457L16.4291 42.948C16.5619 42.7746 16.7406 42.6418 16.945 42.5647C17.1493 42.4876 17.3712 42.4692 17.5854 42.5117C17.7997 42.5541 17.9978 42.6557 18.1573 42.8049C18.3168 42.9541 18.4314 43.145 18.488 43.3559L19.7328 47.9758C19.7824 48.1586 19.8756 48.3266 20.0044 48.4656C20.1332 48.6045 20.2936 48.7102 20.4721 48.7737L24.9848 50.3678C25.1905 50.4406 25.3718 50.5695 25.5082 50.7399C25.6445 50.9103 25.7305 51.1154 25.7563 51.3322C25.7822 51.5489 25.7469 51.7685 25.6545 51.9662C25.5621 52.1639 25.4162 52.3319 25.2334 52.451L21.2245 55.0624C21.0658 55.1662 20.9346 55.3069 20.842 55.4724C20.7495 55.638 20.6984 55.8235 20.6931 56.013L20.5729 60.7954C20.5674 61.0136 20.5009 61.226 20.381 61.4084C20.2611 61.5908 20.0925 61.7361 19.8944 61.8277C19.6962 61.9193 19.4764 61.9537 19.2598 61.9269C19.0431 61.9001 18.8383 61.8133 18.6684 61.6762L14.9504 58.6715C14.8029 58.5518 14.6284 58.4698 14.4421 58.4327C14.2558 58.3956 14.0632 58.4045 13.8811 58.4587L9.29539 59.822C9.08615 59.8846 8.86357 59.8872 8.6529 59.8297C8.44223 59.7722 8.2519 59.6567 8.10351 59.4965C7.95512 59.3363 7.85461 59.1376 7.81339 58.9232C7.77216 58.7087 7.79186 58.487 7.87027 58.2832L9.57651 53.8144C9.6451 53.6372 9.66926 53.446 9.64688 53.2573C9.6245 53.0687 9.55627 52.8884 9.44814 52.7322L6.73602 48.7915C6.61266 48.612 6.54185 48.4016 6.53158 48.1841C6.5213 47.9665 6.57196 47.7504 6.67785 47.5601C6.78374 47.3697 6.94066 47.2127 7.13095 47.1067C7.32123 47.0008 7.53732 46.95 7.75489 46.9602Z" fill="#00C7FF"/>
<path d="M7.75489 46.9602L12.5324 47.2039C12.7219 47.2135 12.9109 47.1768 13.083 47.0969C13.2552 47.0171 13.4053 46.8965 13.5204 46.7457L16.4291 42.948C16.5619 42.7746 16.7406 42.6418 16.945 42.5647C17.1493 42.4876 17.3712 42.4692 17.5854 42.5117C17.7997 42.5541 17.9978 42.6557 18.1573 42.8049C18.3168 42.9541 18.4314 43.145 18.488 43.3559L19.7328 47.9758C19.7824 48.1586 19.8756 48.3266 20.0044 48.4656C20.1332 48.6045 20.2936 48.7102 20.4721 48.7737L24.9848 50.3678C25.1905 50.4406 25.3718 50.5695 25.5082 50.7399C25.6445 50.9103 25.7305 51.1154 25.7563 51.3322C25.7822 51.5489 25.7469 51.7685 25.6545 51.9662C25.5621 52.1639 25.4162 52.3319 25.2334 52.451L21.2245 55.0624C21.0658 55.1662 20.9346 55.3069 20.842 55.4724C20.7495 55.638 20.6984 55.8235 20.6931 56.013L20.5729 60.7954C20.5674 61.0136 20.5009 61.226 20.381 61.4084C20.2611 61.5908 20.0925 61.7361 19.8944 61.8277C19.6962 61.9193 19.4764 61.9537 19.2598 61.9269C19.0431 61.9001 18.8383 61.8133 18.6684 61.6762L14.9504 58.6715C14.8029 58.5518 14.6284 58.4698 14.4421 58.4327C14.2558 58.3956 14.0632 58.4045 13.8811 58.4587L9.29539 59.822C9.08615 59.8846 8.86357 59.8872 8.6529 59.8297C8.44223 59.7722 8.2519 59.6567 8.10351 59.4965C7.95512 59.3363 7.85461 59.1376 7.81339 58.9232C7.77216 58.7087 7.79186 58.487 7.87027 58.2832L9.57651 53.8144C9.6451 53.6372 9.66926 53.446 9.64688 53.2573C9.6245 53.0687 9.55627 52.8884 9.44814 52.7322L6.73602 48.7915C6.61266 48.612 6.54185 48.4016 6.53158 48.1841C6.5213 47.9665 6.57196 47.7504 6.67785 47.5601C6.78374 47.3697 6.94066 47.2127 7.13095 47.1067C7.32123 47.0008 7.53732 46.95 7.75489 46.9602V46.9602Z" stroke="#020064" stroke-width="1.50648" stroke-linecap="round" stroke-linejoin="round"/>
<path d="M104.984 18.0462C105.01 17.7627 104.957 17.4774 104.83 17.2227C104.702 16.9681 104.506 16.7542 104.263 16.6054C104.02 16.4565 103.741 16.3786 103.456 16.3805C103.171 16.3824 102.893 16.4641 102.652 16.6162L97.3774 19.9393C97.1684 20.0716 96.9301 20.1508 96.6835 20.17C96.4368 20.1893 96.1892 20.148 95.9621 20.0498L90.2323 17.5879C89.9708 17.476 89.6833 17.4394 89.4021 17.4822C89.1209 17.525 88.8572 17.6456 88.6409 17.8303C88.4246 18.015 88.2643 18.2565 88.1779 18.5275C88.0916 18.7985 88.0827 19.0883 88.1523 19.364L89.6831 25.409C89.7445 25.6481 89.7471 25.8986 89.6905 26.1389C89.6339 26.3792 89.5198 26.6022 89.3581 26.7887L85.2468 31.4768C85.0592 31.6908 84.9351 31.9529 84.8886 32.2337C84.8422 32.5144 84.8751 32.8026 84.9838 33.0656C85.0925 33.3286 85.2726 33.556 85.5037 33.722C85.7348 33.8881 86.0078 33.9862 86.2917 34.0053L92.5138 34.4164C92.7604 34.4329 92.9994 34.5091 93.21 34.6385C93.4206 34.7679 93.5966 34.9465 93.7228 35.159L96.9111 40.5215C97.0564 40.7663 97.2674 40.9655 97.5202 41.0965C97.773 41.2276 98.0574 41.2852 98.3412 41.2628C98.625 41.2405 98.8969 41.1391 99.1261 40.9702C99.3552 40.8013 99.5325 40.5716 99.6378 40.307L101.953 34.5172C102.045 34.2875 102.191 34.0835 102.379 33.923C102.567 33.7624 102.791 33.6501 103.032 33.5958L109.115 32.2194C109.392 32.1569 109.647 32.0179 109.85 31.8182C110.052 31.6185 110.195 31.366 110.262 31.0893C110.328 30.8126 110.316 30.5229 110.227 30.2527C110.137 29.9826 109.974 29.743 109.755 29.5609L104.963 25.5699C104.773 25.4119 104.624 25.2099 104.529 24.9814C104.435 24.7529 104.397 24.5048 104.42 24.2585L104.984 18.0462Z" fill="#00C7FF"/>
<path d="M104.984 18.0462C105.01 17.7627 104.957 17.4774 104.83 17.2227C104.702 16.9681 104.506 16.7542 104.263 16.6054C104.02 16.4565 103.741 16.3786 103.456 16.3805C103.171 16.3824 102.893 16.4641 102.652 16.6162L97.3774 19.9393C97.1684 20.0716 96.9301 20.1508 96.6835 20.17C96.4368 20.1893 96.1892 20.148 95.9621 20.0498L90.2323 17.5879C89.971 17.4755 89.6834 17.4384 89.4021 17.4809C89.1208 17.5234 88.857 17.6438 88.6406 17.8285C88.4242 18.0131 88.2637 18.2546 88.1774 18.5257C88.0911 18.7968 88.0824 19.0866 88.1523 19.3624L89.6831 25.409C89.7445 25.6481 89.7471 25.8986 89.6905 26.1389C89.6339 26.3792 89.5198 26.6022 89.3581 26.7887L85.2468 31.4768C85.0592 31.6908 84.9351 31.9529 84.8886 32.2337C84.8422 32.5144 84.8751 32.8026 84.9838 33.0656C85.0925 33.3286 85.2726 33.556 85.5037 33.722C85.7348 33.8881 86.0078 33.9862 86.2917 34.0053L92.5138 34.4164C92.7604 34.4329 92.9994 34.5091 93.21 34.6385C93.4206 34.7679 93.5966 34.9465 93.7228 35.159L96.9111 40.5215C97.0564 40.7663 97.2674 40.9655 97.5202 41.0965C97.773 41.2276 98.0574 41.2852 98.3412 41.2628C98.625 41.2405 98.8969 41.1391 99.1261 40.9702C99.3552 40.8013 99.5325 40.5716 99.6378 40.307L101.953 34.5172C102.045 34.2875 102.191 34.0835 102.379 33.923C102.567 33.7624 102.791 33.6501 103.032 33.5958L109.115 32.2194C109.392 32.1569 109.647 32.0179 109.85 31.8182C110.052 31.6184 110.195 31.366 110.262 31.0893C110.328 30.8126 110.316 30.5229 110.227 30.2527C110.137 29.9826 109.974 29.743 109.755 29.5609L104.963 25.5699C104.773 25.4119 104.624 25.2099 104.529 24.9814C104.435 24.7529 104.397 24.5048 104.42 24.2585L104.984 18.0462Z" stroke="#020064" stroke-width="1.50648" stroke-linecap="round" stroke-linejoin="round"/>
<path d="M124.313 48.7915C124.437 48.6119 124.508 48.4011 124.519 48.183C124.529 47.9649 124.478 47.7482 124.372 47.5575C124.265 47.3668 124.108 47.2098 123.917 47.1042C123.725 46.9986 123.508 46.9487 123.29 46.9602L118.513 47.2039C118.323 47.2139 118.134 47.1774 117.962 47.0975C117.79 47.0176 117.64 46.8969 117.525 46.7457L114.615 42.948C114.482 42.7746 114.303 42.6418 114.099 42.5647C113.894 42.4876 113.672 42.4692 113.458 42.5117C113.244 42.5541 113.046 42.6557 112.886 42.8049C112.727 42.9541 112.612 43.145 112.556 43.3559L111.313 47.9758C111.263 48.1586 111.17 48.3266 111.041 48.4656C110.912 48.6045 110.752 48.7102 110.573 48.7737L106.062 50.3678C105.856 50.4401 105.674 50.5687 105.537 50.7392C105.401 50.9096 105.314 51.115 105.289 51.3319C105.263 51.5489 105.298 51.7688 105.391 51.9666C105.484 52.1644 105.63 52.3323 105.814 52.451L109.821 55.0624C109.98 55.1657 110.112 55.3063 110.204 55.4719C110.297 55.6376 110.348 55.8233 110.352 56.013L110.474 60.7954C110.48 61.0136 110.546 61.226 110.666 61.4084C110.786 61.5908 110.954 61.7361 111.153 61.8277C111.351 61.9193 111.57 61.9537 111.787 61.9269C112.004 61.9001 112.209 61.8133 112.379 61.6762L116.101 58.6715C116.249 58.5519 116.423 58.47 116.609 58.433C116.795 58.3959 116.987 58.4047 117.169 58.4587L121.755 59.822C121.964 59.8843 122.187 59.8868 122.397 59.8292C122.608 59.7716 122.798 59.6562 122.947 59.4961C123.095 59.336 123.196 59.1375 123.237 58.9232C123.279 58.7088 123.259 58.4871 123.182 58.2832L121.474 53.8144C121.406 53.6371 121.382 53.446 121.404 53.2575C121.427 53.0689 121.495 52.8887 121.602 52.7322L124.313 48.7915Z" fill="#00C7FF"/>
<path d="M124.313 48.79C124.437 48.6104 124.508 48.3995 124.519 48.1814C124.529 47.9633 124.478 47.7466 124.372 47.556C124.265 47.3653 124.108 47.2082 123.917 47.1026C123.725 46.9971 123.508 46.9472 123.29 46.9586L118.513 47.2023C118.323 47.2124 118.134 47.1758 117.962 47.096C117.79 47.0161 117.64 46.8953 117.525 46.7441L114.615 42.9465C114.482 42.7735 114.303 42.6412 114.099 42.5644C113.895 42.4875 113.673 42.4693 113.459 42.5117C113.245 42.5541 113.047 42.6555 112.888 42.8044C112.729 42.9533 112.614 43.1438 112.557 43.3543L111.313 47.9742C111.263 48.157 111.17 48.3251 111.041 48.464C110.912 48.603 110.752 48.7087 110.573 48.7721L106.062 50.3662C105.856 50.4385 105.674 50.5672 105.537 50.7376C105.401 50.908 105.314 51.1134 105.289 51.3303C105.263 51.5473 105.298 51.7672 105.391 51.965C105.484 52.1628 105.63 52.3307 105.814 52.4495L109.821 55.0608C109.98 55.1641 110.112 55.3047 110.204 55.4704C110.297 55.636 110.348 55.8217 110.352 56.0115L110.474 60.7938C110.48 61.0121 110.546 61.2244 110.666 61.4068C110.786 61.5892 110.954 61.7345 111.153 61.8261C111.351 61.9177 111.57 61.9521 111.787 61.9253C112.004 61.8986 112.209 61.8117 112.379 61.6746L116.101 58.67C116.249 58.5504 116.423 58.4685 116.609 58.4314C116.795 58.3943 116.987 58.4031 117.169 58.4571L121.756 59.8205C121.966 59.8823 122.188 59.8845 122.398 59.8268C122.609 59.769 122.799 59.6536 122.947 59.4935C123.095 59.3335 123.195 59.1352 123.237 58.921C123.278 58.7069 123.259 58.4854 123.182 58.2816L121.474 53.8128C121.406 53.6355 121.382 53.4444 121.404 53.2559C121.427 53.0674 121.495 52.8871 121.602 52.7306L124.313 48.79Z" stroke="#020064" stroke-width="1.50648" stroke-linecap="round" stroke-linejoin="round"/>
</svg>
