<svg width="132" height="118" viewBox="0 0 132 118" fill="none" xmlns="http://www.w3.org/2000/svg">
<path d="M0 59C0 74.6478 6.21605 89.6547 17.2807 100.719C28.3453 111.784 43.3522 118 59 118C74.6478 118 89.6547 111.784 100.719 100.719C111.784 89.6547 118 74.6478 118 59C118 43.3522 111.784 28.3453 100.719 17.2807C89.6547 6.21605 74.6478 0 59 0C43.3522 0 28.3453 6.21605 17.2807 17.2807C6.21605 28.3453 0 43.3522 0 59Z" fill="#E7FFD4"/>
<path d="M75.2254 104.21C75.2254 102.988 67.961 101.997 59.0004 101.997C50.0398 101.997 42.7754 102.988 42.7754 104.21C42.7754 105.431 50.0398 106.422 59.0004 106.422C67.961 106.422 75.2254 105.431 75.2254 104.21Z" fill="#B4FF79"/>
<path d="M76.072 58.0343L60.3883 26.6669C60.2594 26.4091 60.0613 26.1923 59.8162 26.0408C59.571 25.8892 59.2885 25.809 59.0003 25.809C58.7121 25.809 58.4296 25.8892 58.1845 26.0408C57.9393 26.1923 57.7412 26.4091 57.6123 26.6669L41.9287 58.0343L22.0427 40.7989C21.7984 40.5864 21.4937 40.4556 21.1714 40.4249C20.849 40.3942 20.5251 40.4652 20.2451 40.6278C19.9651 40.7904 19.743 41.0366 19.6098 41.3317C19.4767 41.6269 19.4393 41.9564 19.5028 42.2739L27.9604 85.9767C27.9604 85.9767 27.9604 93.7366 59.0003 93.7366C90.0402 93.7366 90.0387 85.9767 90.0387 85.9767L98.4979 42.2739C98.5614 41.9564 98.5239 41.6269 98.3908 41.3317C98.2577 41.0366 98.0355 40.7904 97.7555 40.6278C97.4755 40.4652 97.1516 40.3942 96.8293 40.4249C96.5069 40.4556 96.2022 40.5864 95.9579 40.7989L76.072 58.0343Z" fill="white"/>
<path d="M26.6299 79.0911L27.9574 85.969C27.9574 85.969 27.9574 93.729 58.9973 93.729C90.0372 93.729 90.0357 85.969 90.0357 85.969L91.3632 79.0911C88.3837 81.367 80.3981 84.4173 58.9929 84.4173C37.5877 84.4173 29.6079 81.367 26.6299 79.0911Z" fill="#B4FF79"/>
<path d="M26.6299 79.0911C29.6079 81.367 37.5936 84.4173 59.0002 84.4173C80.4069 84.4173 88.3911 81.367 91.3706 79.0911" stroke="#020064" stroke-width="1.50648" stroke-linejoin="round"/>
<path d="M76.072 58.0343L60.3883 26.6669C60.2594 26.4091 60.0613 26.1923 59.8162 26.0408C59.571 25.8892 59.2885 25.809 59.0003 25.809C58.7121 25.809 58.4296 25.8892 58.1845 26.0408C57.9393 26.1923 57.7412 26.4091 57.6123 26.6669L41.9287 58.0343L22.0427 40.7989C21.7984 40.5864 21.4937 40.4556 21.1714 40.4249C20.849 40.3943 20.5251 40.4652 20.2451 40.6278C19.9651 40.7904 19.743 41.0366 19.6098 41.3317C19.4767 41.6269 19.4393 41.9564 19.5028 42.2739L27.9604 85.9766C27.9604 85.9766 27.9604 93.7366 59.0003 93.7366C90.0402 93.7366 90.0388 85.9766 90.0388 85.9766L98.4979 42.2739C98.5614 41.9564 98.5239 41.6269 98.3908 41.3317C98.2577 41.0366 98.0355 40.7904 97.7555 40.6278C97.4755 40.4652 97.1516 40.3943 96.8293 40.4249C96.5069 40.4556 96.2022 40.5864 95.9579 40.7989L76.072 58.0343Z" stroke="#020064" stroke-width="1.50648" stroke-linejoin="round"/>
<path d="M88.3197 20.4557C88.5193 19.5963 88.9559 18.81 89.5798 18.1861C90.2037 17.5622 90.9899 17.1257 91.8494 16.926L98.9294 15.2917C99.0583 15.2609 99.1731 15.1874 99.2552 15.0834C99.3373 14.9793 99.382 14.8505 99.382 14.718C99.382 14.5854 99.3373 14.4567 99.2552 14.3526C99.1731 14.2485 99.0583 14.1751 98.9294 14.1442L91.8494 12.5114C90.9895 12.3127 90.2027 11.8765 89.5787 11.2524C88.9546 10.6284 88.5184 9.84157 88.3197 8.98168L86.6854 1.90168C86.6545 1.77275 86.5811 1.65797 86.477 1.57586C86.3729 1.49375 86.2442 1.4491 86.1116 1.4491C85.979 1.4491 85.8503 1.49375 85.7462 1.57586C85.6421 1.65797 85.5687 1.77275 85.5379 1.90168L83.905 8.98168C83.7054 9.84113 83.2689 10.6274 82.645 11.2513C82.0211 11.8752 81.2348 12.3117 80.3754 12.5114L73.2954 14.1442C73.1664 14.1751 73.0516 14.2485 72.9695 14.3526C72.8874 14.4567 72.8428 14.5854 72.8428 14.718C72.8428 14.8505 72.8874 14.9793 72.9695 15.0834C73.0516 15.1874 73.1664 15.2609 73.2954 15.2917L80.3754 16.926C81.235 17.1248 82.0216 17.5611 82.6454 18.1851C83.2692 18.8092 83.7052 19.5959 83.9036 20.4557L85.5379 27.5357C85.5687 27.6646 85.6421 27.7794 85.7462 27.8615C85.8503 27.9436 85.979 27.9883 86.1116 27.9883C86.2442 27.9883 86.3729 27.9436 86.477 27.8615C86.5811 27.7794 86.6545 27.6646 86.6854 27.5357L88.3197 20.4557Z" fill="white" stroke="#020064" stroke-width="1.50648" stroke-linecap="round" stroke-linejoin="round"/>
<path d="M123.851 61.7021C123.979 61.1518 124.259 60.6484 124.658 60.249C125.058 59.8496 125.562 59.5702 126.112 59.4424L130.662 58.3922C130.745 58.3725 130.819 58.3253 130.872 58.2584C130.925 58.1915 130.954 58.1087 130.954 58.0235C130.954 57.9382 130.925 57.8555 130.872 57.7885C130.819 57.7216 130.745 57.6745 130.662 57.6547L126.112 56.5986C125.56 56.4709 125.054 56.1907 124.653 55.7899C124.252 55.3891 123.972 54.8839 123.843 54.3316L122.795 49.7827C122.775 49.6997 122.728 49.6259 122.661 49.573C122.594 49.5202 122.511 49.4915 122.426 49.4915C122.341 49.4915 122.258 49.5202 122.191 49.573C122.124 49.6259 122.077 49.6997 122.057 49.7827L121.009 54.3316C120.881 54.8839 120.6 55.3893 120.199 55.7901C119.798 56.1909 119.292 56.471 118.74 56.5986L114.193 57.6474C114.11 57.6671 114.036 57.7143 113.983 57.7812C113.93 57.8481 113.901 57.9309 113.901 58.0161C113.901 58.1014 113.93 58.1841 113.983 58.251C114.036 58.318 114.11 58.3651 114.193 58.3849L118.74 59.4351C119.292 59.5624 119.798 59.8425 120.199 60.2434C120.6 60.6442 120.88 61.1497 121.007 61.7021L122.057 66.2525C122.077 66.3354 122.124 66.4093 122.191 66.4621C122.258 66.515 122.341 66.5437 122.426 66.5437C122.511 66.5437 122.594 66.515 122.661 66.4621C122.728 66.4093 122.775 66.3354 122.795 66.2525L123.851 61.7021Z" fill="white" stroke="#020064" stroke-width="1.50648" stroke-linecap="round" stroke-linejoin="round"/>
<path d="M32.8205 27.2583C32.978 26.5754 33.3242 25.9505 33.8197 25.455C34.3153 24.9594 34.9402 24.6132 35.623 24.4558L41.2428 23.1592C41.3453 23.135 41.4366 23.0769 41.5019 22.9943C41.5673 22.9117 41.6028 22.8095 41.6028 22.7042C41.6028 22.5989 41.5673 22.4967 41.5019 22.4141C41.4366 22.3315 41.3453 22.2734 41.2428 22.2492L35.623 20.9526C34.94 20.7955 34.315 20.4494 33.8194 19.9538C33.3238 19.4582 32.9776 18.8332 32.8205 18.1501L31.524 12.5378C31.501 12.4342 31.4434 12.3416 31.3607 12.2752C31.278 12.2088 31.1751 12.1726 31.069 12.1726C30.9629 12.1726 30.86 12.2088 30.7773 12.2752C30.6945 12.3416 30.6369 12.4342 30.6139 12.5378L29.3174 18.1531C29.1601 18.836 28.814 19.461 28.3184 19.9566C27.8228 20.4521 27.1979 20.7983 26.5149 20.9556L20.8981 22.2506C20.7956 22.2749 20.7043 22.333 20.639 22.4156C20.5736 22.4981 20.5381 22.6004 20.5381 22.7057C20.5381 22.811 20.5736 22.9132 20.639 22.9958C20.7043 23.0784 20.7956 23.1365 20.8981 23.1607L26.5149 24.4572C27.1978 24.6147 27.8227 24.9609 28.3182 25.4564C28.8137 25.952 29.16 26.5769 29.3174 27.2597L30.6139 32.8795C30.6382 32.982 30.6963 33.0733 30.7789 33.1386C30.8614 33.204 30.9637 33.2395 31.069 33.2395C31.1743 33.2395 31.2765 33.204 31.3591 33.1386C31.4417 33.0733 31.4998 32.982 31.524 32.8795L32.8205 27.2583Z" fill="white" stroke="#020064" stroke-width="1.50648" stroke-linecap="round" stroke-linejoin="round"/>
</svg>
