<svg width="283" height="262" viewBox="0 0 283 262" fill="none" xmlns="http://www.w3.org/2000/svg">
<path d="M165.1 195.272C163.466 190.92 155.341 193.787 148.151 187.845C145.181 185.364 142.21 175.516 142.21 175.516C142.21 175.516 149.637 180.804 153.93 176.912C158.223 173.02 156.277 161.746 147.988 164.657C139.194 167.776 136.907 164.434 126.865 161.003C116.823 157.571 110.837 163.87 110.837 163.87C95.4031 162.043 85.9556 165.192 78.7215 169.188C72.334 161.76 60.4504 167.078 54.5383 172.649C47.6904 179.096 49.0124 184.354 49.7997 186.018C41.1395 192.732 40.887 199.55 41.4961 204.616C41.9983 209.942 44.1393 214.983 47.6241 219.041C51.109 223.101 55.7665 225.981 60.9555 227.284C60.9555 227.284 60.7178 238.424 63.8075 239.435C66.8973 240.445 68.1005 236.597 74.2057 233.493C80.8011 231.77 87.7976 224.937 84.1137 220.124C92.3282 225.219 104.717 222.114 105.742 208.894C109.782 216.737 128.336 215.786 138.422 211.434C139.64 220.777 136.669 229.616 132.629 233.404C126.687 238.93 121.8 238.484 118.754 241.098C115.709 243.713 122.943 251.719 139.551 241.41C154.272 232.26 155.341 216.559 145.106 203.858C155.267 206.666 166.794 199.773 165.1 195.272ZM80.0584 196.921C79.9544 197.159 78.0382 186.107 87.857 180.982C94.6158 177.447 102.429 179.853 103.306 185.245C104.449 192.316 85.0495 183.879 80.0584 196.921Z" fill="#AFEAFF"/>
<path d="M56.8244 152.047C52.1601 148.868 59.9884 122.991 68.5743 123.407C78.6754 123.897 94.0647 146.105 88.6725 154.126C85.7165 158.523 64.623 157.35 56.8244 152.047Z" fill="#AFEAFF"/>
<path d="M30.3377 133.881C28.273 132.395 31.7341 120.511 35.522 120.645C39.9783 120.868 46.7817 131.132 44.4347 134.846C43.0829 136.851 33.784 136.361 30.3377 133.881Z" fill="#AFEAFF"/>
<path d="M96.9316 126.928C95.2234 125.74 98.0754 116.144 101.195 116.293C104.864 116.486 110.449 124.715 108.488 127.701C107.419 129.335 99.754 128.889 96.9316 126.928Z" fill="#AFEAFF"/>
<path d="M196.856 27.7138C196.856 27.7138 211.072 18.1178 215.335 20.4648C220.341 23.2277 217.608 25.0697 220.341 27.5355C223.921 30.7738 238.82 25.7084 241.702 29.021C245.534 33.4773 238.731 38.0674 240.736 42.494C242.742 46.9207 253.051 47.6485 253.051 50.1144C253.051 53.3972 248.594 52.9516 248.253 56.0562C248.074 57.408 250.674 63.3943 248.654 64.4193C246.634 65.4443 238.909 56.0116 233.576 56.9029C229.67 57.5565 226.714 62.4585 222.926 62.3545C217.088 62.1911 206.289 51.4959 202.694 53.7983C199.099 56.1008 197.955 62.3397 194.197 62.1911C190.439 62.0426 185.997 52.0603 183.19 52.7585C180.382 53.4567 175.287 62.4882 172.316 61.8643C169.12 60.9525 165.807 60.5121 162.483 60.5571C158.858 60.6908 150.198 65.7562 144.509 64.6124C141.538 64.0182 139.221 60.6908 136.68 61.3593C132.492 62.4436 128.912 69.0093 127.188 67.7913C125.777 66.796 128.317 62.5031 127.188 60.2749C126.535 59.042 122.732 58.3438 122.301 56.1453C121.722 53.6646 132.759 50.0104 132.997 46.2374C133.234 42.4643 130.917 43.2665 132.15 39.3894C133.383 35.5124 144.836 37.9931 148.876 38.825C154.001 45.3312 163.122 53.6795 183.918 46.9504C195.252 43.2665 196.856 27.7138 196.856 27.7138Z" fill="#AFEAFF"/>
<path d="M186.551 118.877C183.387 119.932 180.535 120.452 177.727 118.491C177.522 118.343 177.289 118.236 177.041 118.178C176.795 118.12 176.539 118.111 176.288 118.151C176.038 118.192 175.798 118.282 175.582 118.415C175.367 118.549 175.18 118.723 175.031 118.929C174.883 119.135 174.777 119.368 174.719 119.615C174.66 119.862 174.651 120.117 174.693 120.368C174.733 120.618 174.822 120.858 174.956 121.074C175.089 121.289 175.265 121.477 175.47 121.625C179.673 124.596 184.1 123.838 187.947 122.487C188.426 122.302 188.812 121.934 189.02 121.464C189.226 120.995 189.24 120.462 189.054 119.984C188.868 119.505 188.501 119.12 188.032 118.912C187.563 118.704 187.029 118.692 186.551 118.877Z" fill="#001434"/>
<path d="M186.237 101.08C183.589 99.8534 180.625 99.4797 177.756 100.011C174.785 100.575 172.571 102.15 173.522 103.695C173.78 104.133 174.198 104.455 174.688 104.594C175.178 104.732 175.703 104.676 176.151 104.437C178.498 102.952 182.301 103.338 185.272 104.69C185.694 104.681 186.099 104.535 186.431 104.275C186.762 104.015 187 103.654 187.109 103.247C187.218 102.841 187.191 102.409 187.035 102.018C186.878 101.628 186.598 101.299 186.237 101.08Z" fill="#001434"/>
<path d="M144.896 76.6753C148.179 75.5167 150.11 74.1944 154.507 74.6401C157.344 74.9372 157.374 71.0157 154.7 70.6444C151.012 70.3428 147.316 71.1552 144.094 72.9764C141.851 74.1945 143.351 77.2398 144.896 76.6753Z" fill="#001434"/>
<path d="M151.522 78.6352C131.81 81.1159 136.98 107.75 154.597 106.265C172.779 104.735 169.244 76.4219 151.522 78.6352ZM162.128 96.832C161.439 98.5398 160.221 99.9819 158.652 100.947C154.196 97.1142 147.333 92.1677 143.174 89.2562C147.511 76.4962 167.669 82.9133 162.188 96.832H162.128Z" fill="#001434"/>
<path d="M176.567 96.299C176.757 96.4968 176.985 96.6522 177.239 96.7547C177.492 96.8572 177.765 96.9047 178.039 96.8937C178.312 96.8829 178.581 96.8141 178.826 96.6917C179.069 96.5695 179.286 96.3964 179.459 96.1843C179.632 95.972 179.757 95.7256 179.829 95.461C179.898 95.1965 179.912 94.92 179.867 94.65C179.823 94.3799 179.722 94.1223 179.57 93.8945C179.419 93.6666 179.22 93.4735 178.988 93.3281C173.12 89.6441 178.646 83.1824 184.291 85.5591C186.608 86.5395 188.183 82.8408 185.776 82.0089C184.089 81.3994 182.28 81.1976 180.498 81.4195C178.717 81.6416 177.014 82.2812 175.527 83.2864C171.516 86.3464 170.521 92.1694 176.567 96.299Z" fill="#001434"/>
<path d="M209.261 73.3197C188.465 73.2305 191.228 103.578 210.093 101.543C228.26 99.7161 226.373 73.3939 209.261 73.3197ZM214.43 96.1956C210.123 92.3631 203.037 87.2829 198.67 84.208C205.845 67.4818 229.448 83.6881 214.43 96.1956Z" fill="#001434"/>
<path d="M190.516 108.212C188.362 109.979 183.698 111.851 182.213 108.375C182.052 108 181.777 107.685 181.428 107.475C181.079 107.264 180.674 107.169 180.267 107.201C176.583 107.439 179.405 112.92 173.122 108.479C171.072 106.993 169.215 109.593 170.775 111.554C172.632 113.901 178.469 116.248 180.698 112.712C184.114 117.169 191.096 113.307 193.205 110.633C193.493 110.272 193.633 109.814 193.596 109.354C193.559 108.893 193.346 108.464 193.002 108.155C192.658 107.845 192.21 107.679 191.748 107.69C191.286 107.7 190.845 107.887 190.516 108.212Z" fill="#001434"/>
<path d="M200.171 69.0686C203.427 68.28 206.838 68.3929 210.035 69.3954C211.52 69.7816 212.709 66.9147 210.896 65.7412C208.119 63.9289 201.627 64.2557 199.146 65.3401C198.901 65.4074 198.673 65.5224 198.472 65.6782C198.271 65.834 198.104 66.0279 197.979 66.2486C197.853 66.4692 197.772 66.7125 197.741 66.9644C197.708 67.2164 197.728 67.472 197.795 67.7168C197.861 67.9616 197.977 68.1908 198.133 68.3912C198.289 68.5918 198.482 68.7595 198.704 68.885C198.924 69.0105 199.167 69.0913 199.42 69.1228C199.671 69.1543 199.926 69.1359 200.171 69.0686Z" fill="#001434"/>
<path d="M35.2552 130.389C33.1755 130.567 33.2053 133.36 35.8048 133.137C37.9438 132.855 37.8399 129.988 35.2552 130.389Z" fill="#001434"/>
<path d="M72.3041 146.505C74.7848 145.926 74.9037 145.377 74.77 139.524C74.6363 133.211 74.0421 123.437 67.4319 124.67C60.5691 124.863 66.3475 147.932 72.3041 146.505Z" fill="#001434"/>
<path d="M59.7227 211.734C57.0935 212.002 56.2913 212.685 56.4399 214.037C56.5587 215.032 57.3163 215.894 59.4108 215.745C61.119 215.626 64.1494 217.32 65.2189 220.662C66.2884 224.004 69.4821 222.266 69.0216 219.518C68.5017 215.834 64.7287 211.229 59.7227 211.734Z" fill="#001434"/>
<path d="M73.1806 148.586C68.041 149.581 68.5609 156.696 73.4777 156.355C78.9887 155.969 78.7362 147.501 73.1806 148.586Z" fill="#001434"/>
<path d="M36.548 126.869C36.5242 125.7 36.2667 124.549 35.7904 123.482C35.3745 122.888 33.5325 122.903 32.8195 123.482C31.5866 124.447 32.6116 129.572 34.5129 129.557C35.7756 129.424 36.8005 129.112 36.548 126.869Z" fill="#001434"/>
<path d="M278.9 191.976C274.996 191.515 271.067 191.288 267.135 191.292C278.35 176.794 282.242 167.362 282.242 155.642C282.242 132.127 259.618 105.998 242.387 94.946C249.681 91.5592 255.474 83.8794 254.746 75.3975C260.272 72.8128 257.554 63.9446 258.415 58.9535C260.242 55.5815 265.545 54.9428 264.461 48.4662C263.57 38.7662 246.042 44.3812 249.919 33.7603C250.721 30.7002 251.835 26.4964 248.522 23.0947C245.091 18.7126 231.098 22.2034 226.463 19.9159C224.384 4.51172 214.832 7.40835 203.706 14.286C182.405 -8.72362 142.61 -0.939886 116.005 16.529C103.097 25.0852 83.6818 46.7134 96.4715 95.05C79.879 94.7677 59.3352 94.3073 41.8812 94.1736C-0.855235 93.7725 -5.47497 98.7933 4.31415 134.147C7.28505 150.413 11.7414 170.882 14.3261 182.395C16.8959 192.793 16.985 203.755 25.4224 208.182C17.2227 222.427 26.4473 226.007 37.306 219.813C40.9436 224.936 45.8465 229.03 51.5366 231.697C50.5859 253.577 62.4993 247.903 72.3329 236.287C75.7495 233.984 79.6711 234.801 83.3996 231.4C99.8435 242.422 114.252 235.069 132.687 230.404C127.904 238.99 103.513 240.223 101.492 247.814C99.3236 256.117 104.642 261.391 111.281 261.822C126.715 262.817 151.849 248.23 154.359 225.532C165.768 222.784 193.724 216.53 200.126 213.173C203.32 211.688 203.35 207.424 203.35 205.107C203.498 200.309 201.389 199.165 189.193 194.798C212.574 196.432 261.416 195.08 278.32 195.155C280.757 195.169 281.425 191.946 278.9 191.976ZM246.012 88.4397C238.778 93.9656 235.406 91.8117 235.257 98.3328C234.826 118.446 204.167 127.774 179.642 129.097C175.587 129.304 172.111 128.948 168.501 128.814C157.137 128.398 149.383 124.893 145.224 121.387C140.663 117.728 136.966 113.107 134.395 107.855C130.027 97.8019 129.067 86.5963 131.662 75.9471C136.267 70.2429 135.881 68.5198 137.826 68.2227C139.312 67.9553 143.233 70.9708 146.739 70.3172C152.057 69.3517 157.583 63.6624 161.98 62.1027C166.436 62.8454 170.135 69.5299 175.349 68.4753C180.682 67.9999 182.241 59.7111 186.104 58.0771C188.777 59.0129 190.382 63.7664 194.704 63.2316C203.914 61.5531 199.487 51.0361 209.975 61.657C215.189 67.1532 219.274 69.2626 223.522 68.9803C228.617 68.6535 231.202 63.9892 234.589 64.0783C238.763 64.1823 245.121 75.4123 250.929 75.9619C251.236 78.2881 250.946 80.6545 250.086 82.8375C249.226 85.0207 247.824 86.9486 246.012 88.4397ZM205.31 17.9105C209.514 15.0733 216.719 11.8498 219.081 12.6371C222.349 13.7364 221.19 20.0644 223.537 22.4857C226.716 26.8381 241.734 22.7976 245.819 25.8428C249.488 29.6456 242.64 37.0283 246.948 41.3658C249.815 45.3765 259.737 44.5743 260.718 49.1347C260.569 55.5518 252.592 53.3979 254.494 64.4794C255.563 84.4141 241.407 58.8495 234.247 60.2013C229.419 60.7955 227.889 65.4301 222.69 65.3558C215.263 64.8062 204.048 44.7526 197.556 56.9482C196.606 58.4336 196.071 59.2357 194.511 59.3397C191.377 59.1318 189.951 53.5465 185.806 54.2001C180.489 54.408 179.062 63.3207 174.784 64.5982C170.818 64.5982 166.837 57.9583 162.307 58.1811C155.979 58.493 148.804 70.0647 141.51 64.9844C140.97 64.5742 140.351 64.2803 139.691 64.1218C139.031 63.9633 138.346 63.9434 137.678 64.0635C132.761 64.5091 128.483 78.1307 123.507 75.5609C119.57 73.8823 125.364 66.767 120.298 61.8947C115.842 57.6612 110.36 55.1062 119.303 51.7788C139.312 44.3515 104.835 32.4679 142.921 33.4186C150.601 57.9731 197.408 56.9036 198.641 28.9622C203.26 27.15 206.484 22.7828 205.31 17.9105ZM118.144 19.6782C138.272 6.20514 162.411 0.664402 182.464 5.89319C194.036 8.86409 208.207 17.3312 198.151 24.9218C197.485 22.5418 196.315 20.3331 194.719 18.4453C193.07 16.5587 190.515 18.5789 192.209 20.4209C196.175 24.699 195.908 34.2356 191.674 38.2463C190.624 35.6637 189.18 33.2586 187.396 31.1162C187.065 30.7222 186.591 30.4759 186.078 30.4312C185.566 30.3866 185.056 30.5475 184.663 30.8785C184.269 31.2094 184.022 31.6833 183.978 32.1959C183.933 32.7086 184.094 33.2178 184.425 33.6117C186.029 35.5131 188.347 39.1673 188.48 41.5292C184.562 44.5319 179.878 46.3743 174.963 46.8471C174.438 43.3364 173.343 39.9347 171.724 36.7757C171.493 36.3188 171.087 35.9728 170.6 35.814C170.113 35.6552 169.582 35.6965 169.125 35.929C168.667 36.1615 168.323 36.566 168.164 37.0535C168.005 37.541 168.046 38.0716 168.278 38.5286C169.658 41.215 170.606 44.1027 171.086 47.0848C158.548 47.2036 145.67 39.9694 145.358 25.308C145.343 24.7945 145.124 24.308 144.752 23.9546C144.379 23.6011 143.881 23.4095 143.367 23.4215C140.396 23.7335 141.748 27.5362 141.882 29.4524C126.389 28.576 115.916 32.1263 121.383 42.7324C123.388 46.6391 120.892 46.6391 117.728 48.2137C103.513 54.1555 110.672 59.6665 118.59 66.1282C119.021 69.2328 117.104 73.5555 119.169 76.7789C111.92 79.5567 101.463 80.552 97.3925 80.8342C93.0847 53.086 100.23 31.6658 118.144 19.6782ZM21.4117 195.63C16.6434 175.873 12.9446 157.974 8.11688 133.464C6.63146 124.7 1.17985 109.058 5.29455 103.443C16.5988 93.6834 63.4054 99.4469 82.8648 98.6151C96.1744 99.7143 107.449 96.7434 115.872 103.339C123.893 109.682 124.279 139.881 129.047 150.442C124.012 148.808 115.307 152.388 112.425 154.646C109.39 154.331 106.332 154.293 103.29 154.527C98.1352 141.158 78.0371 112.118 65.3959 115.653C54.3293 118.758 44.7333 150.324 43.9311 161.984C35.9394 167.926 35.3006 178.621 38.1824 182.305C26.6553 191.218 31.4088 201.349 27.5169 204.914C25.259 203.889 22.5406 200.324 21.4117 195.63ZM138.837 159.014C148.878 165.906 157.821 157.246 160.598 164.138C162.797 169.59 153.29 176.022 150.081 177.507C141.169 168.743 133.742 158.107 118.605 155.582C125.572 151.705 133.816 155.567 138.837 159.014ZM49.7095 173.021L51.195 173.853C47.5569 175.217 44.1729 177.181 41.183 179.661C35.464 165.49 60.0483 155.627 71.1743 161.836C81.2902 166.01 74.9919 174.254 64.6383 173.482C57.6715 173.021 55.0126 171.714 51.7743 169.753C51.3431 169.531 50.8437 169.479 50.3756 169.606C49.9075 169.736 49.5051 170.036 49.2484 170.449C48.9919 170.86 48.8998 171.353 48.9909 171.83C49.0818 172.307 49.349 172.733 49.7392 173.021H49.7095ZM48.3726 159.117C50.0957 149.314 58.7708 121.565 66.9853 119.842C75.1999 118.119 94.3473 142.525 98.67 154.943C91.3025 155.517 84.1756 157.828 77.8737 161.687C73.2985 156.577 59.2758 153.458 48.4023 159.132L48.3726 159.117ZM83.8303 224.745C79.5374 232.172 75.0959 229.379 69.8077 233.286C63.4499 239.228 54.5669 250.755 55.1908 233.286C58.1617 235.306 63.0192 233.004 58.9045 230.315C50.2294 228.206 39.5936 220.467 37.7219 211.643C37.6116 211.142 37.3078 210.704 36.8766 210.426C36.4453 210.149 35.9216 210.052 35.4195 210.158C32.5228 211.079 34.6173 214.614 35.3155 216.471C32.7605 217.615 28.9726 220.526 26.7593 219.115C23.1645 216.812 32.8051 206.013 33.1022 199.893C33.934 188.128 47.214 177.611 57.0922 176.274C66.3466 179.483 82.746 175.547 79.8048 165.134C93.6046 155.612 123.611 155.686 136.371 168.684C132.687 166.069 124.888 165.802 120.031 167.793C114.475 170.05 110.955 173.452 112.975 175.755C113.16 175.934 113.38 176.072 113.622 176.162C113.863 176.251 114.12 176.289 114.377 176.274C114.635 176.26 114.885 176.19 115.115 176.072C115.344 175.955 115.546 175.792 115.708 175.591C129.523 162.088 146.219 179.869 156.32 187.579C160.168 189.881 172.066 187.178 173.433 191.515C175.052 200.636 160.836 206.37 153.067 206.132C148.611 205.865 142.877 200.77 141.065 198.824C139.253 196.878 136.49 199.67 138.242 201.468C139.395 202.666 140.626 203.788 141.926 204.825C138.317 215.342 120.432 218.283 108.934 216.53C109.291 209.103 106.617 204.171 101.73 199.551C116.139 187.237 100.438 169.204 84.8999 180.968C78.453 185.856 73.6699 194.248 77.1161 200.279C77.3811 200.704 77.8009 201.01 78.2871 201.132C78.7731 201.254 79.2874 201.181 79.7211 200.93C80.155 200.679 80.4744 200.27 80.612 199.788C80.7495 199.306 80.6944 198.791 80.4584 198.348C78.4233 194.798 81.4982 188.292 87.1875 184.133C90.0098 180.686 103.869 178.428 103.646 188.871C103.156 192.926 99.0859 197.383 95.2535 199.982C92.5351 202.582 96.932 204.899 98.8037 202.181C114 214.599 98.6403 233.494 84.5285 220.184C80.7852 217.778 79.8048 222.754 83.86 224.745H83.8303ZM124.873 228.473C108.533 232.632 100.304 237.163 86.0437 228.399C86.4002 227.913 86.7567 227.378 87.1132 226.795C93.4115 230.954 105.978 226.602 107.91 220.274C116.718 222.056 130.191 219.739 136.415 216.322C136.724 219.488 136.333 222.683 135.272 225.681C131.424 226.691 127.993 227.626 124.903 228.473H124.873ZM133.028 250.666C126.715 254.335 119.808 257.945 113.495 258.093C107.895 258.227 104.3 255.033 105.161 250.042C105.741 246.67 110.494 245.586 113.792 244.189C126.567 238.96 142.58 237.876 139.951 213.842C142.103 211.983 143.844 209.697 145.061 207.127C155.355 216.931 151.314 239.807 133.058 250.666H133.028ZM199.398 204.528C199.398 205.716 199.502 208.984 198.477 209.608C192.862 212.727 165.946 218.788 154.493 221.492C154.276 217.502 153.376 213.577 151.834 209.89C161.727 210.722 174.963 204.706 177.369 194.843C191.006 199.477 199.473 201.839 199.428 204.528H199.398ZM177.117 190.713C173.284 180.315 158.994 189.005 153.127 180.315C161.46 176.022 166.109 167.703 163.851 162.489C161.698 157.469 158.028 157.335 150.096 158.286C143.189 159.103 139.862 153.948 133.578 151.839C128.958 140.148 128.424 125.101 125.468 113.737C122.794 103.057 117.506 95.2579 100.482 95.0797C99.5167 91.5443 98.7146 88.0832 98.0758 84.6815C103.067 84.3102 115.233 83.0772 122.883 79.4082C124.345 79.874 125.926 79.8003 127.339 79.2002C123.299 107.142 138.005 130.909 167.164 132.186C161.49 137.801 162.039 143.699 154.181 137.267C153.825 136.897 153.342 136.672 152.829 136.637C152.317 136.601 151.809 136.757 151.403 137.073C150.111 138.351 151.032 140.371 154.642 142.614C159.098 145.377 162.366 145.719 166.243 140.282C169.689 135.484 171.383 132.721 173.121 132.647C177.577 132.424 176.923 143.788 185.821 145.333C190.382 146.135 193.813 143.461 196.546 140.416C198.24 138.529 195.982 135.811 193.932 137.623C190.025 141.084 184.039 145.05 179.404 132.647C203.171 131.815 239.461 122.783 238.822 97.4118C249.072 102.878 265.427 117.02 272.646 132.231C257.791 132.528 235.51 139.94 218.1 156.384C215.129 151.334 214.06 147.813 211.698 148.348C209.707 148.794 209.96 151.824 214.476 159.266C202.295 172.1 197.809 186.004 197.096 191.129C190.144 190.891 182.717 190.698 177.176 190.713H177.117ZM201.478 191.307C203.534 181.539 208.136 172.49 214.817 165.074C230.073 147.709 252.548 135.142 274.443 136.108C284.589 160.261 275.216 174.938 262.07 191.263C219.378 191.604 240.115 192.704 201.537 191.307H201.478Z" fill="#001434"/>
<path d="M64.2227 195.23C63.8959 191.486 60.9547 189.288 56.7954 189.585C53.6017 189.808 51.9677 192.392 53.3789 193.64C54.7901 194.888 55.9339 192.556 58.1175 193.536C58.5551 193.729 58.9337 194.034 59.2148 194.42C59.496 194.808 59.6696 195.262 59.7179 195.738C59.7662 196.213 59.6876 196.693 59.4899 197.128C59.2923 197.563 58.9827 197.939 58.5928 198.215C54.2107 196.596 53.4234 201.394 55.6219 204.766C58.4294 209.846 65.5447 206.727 61.9351 200.919C63.4205 198.943 65.9458 197.829 67.253 201.246C68.0997 203.474 66.7925 205.895 68.7385 206.623C72.5858 208.153 73.3731 194.427 64.2227 195.23Z" fill="#001434"/>
<path d="M43.6355 197.309C41.0063 197.309 40.1299 197.859 40.1299 199.225C40.1299 200.235 40.7835 201.171 42.9522 201.26C44.281 201.551 45.4904 202.238 46.4212 203.228C47.352 204.221 47.9604 205.472 48.1662 206.816C48.8198 210.128 52.2066 208.881 52.0729 206.118C51.8947 202.389 48.6712 197.368 43.6355 197.309Z" fill="#001434"/>
<path d="M22.852 161.004C19.5097 143.966 12.1864 117.703 15.2464 111.717C17.7717 106.815 32.7154 108.746 40.7814 108.063C57.2847 108.063 74.8725 107.662 97.7039 107.929C105.636 108.107 112.157 107.127 114.623 115.059C115.396 117.525 118.129 118.03 117.713 114.331C116.554 103.933 106.943 104.245 97.7633 104.052C81.4233 103.874 58.6513 104.052 50.0357 104.215C5.94756 104.171 5.72475 98.9865 15.2167 144.055C16.821 148.303 19.5097 168.818 22.0647 179.602C23.4164 185.321 24.2631 187.282 25.6892 186.896C27.1152 186.509 26.9518 184.667 25.9863 179.721C25.0207 174.774 23.2679 165.074 22.852 161.004Z" fill="#001434"/>
<path d="M25.1396 123.614C21.3368 131.189 21.5299 135.497 23.6541 137.532C26.3279 140.117 33.7403 138.23 39.2216 138.008C50.7933 137.532 50.9716 131.323 43.678 122.648C36.3844 113.973 30.71 112.532 25.1396 123.614ZM44.1088 132.125C43.8414 134.086 35.9833 134.591 32.4034 134.829C26.3428 135.245 24.278 134.576 28.5115 125.515C32.1212 117.761 35.4486 118.088 40.6477 125.129C42.3262 127.431 44.3316 130.402 44.1088 132.125Z" fill="#001434"/>
<path d="M103.512 125.131C104.611 125.131 105.101 124.358 104.745 122.694C104.463 119.828 103.452 117.57 101.477 119.426C100.452 120.392 101.685 125.279 103.512 125.131Z" fill="#001434"/>
<path d="M101.818 113.261C94.9999 114.568 91.9399 128.873 94.5543 131.383C97.5252 134.191 102.308 132.78 106.839 132.572C115.514 132.156 116.361 127.744 112.231 121.327C107.938 114.642 104.863 112.682 101.818 113.261ZM111.414 127.64C110.642 129.036 108.933 129.125 107.314 129.259C98.9067 129.883 93.1877 133.077 98.4016 120.777C103.422 108.894 112.484 125.754 111.414 127.64Z" fill="#001434"/>
<path d="M104.062 125.784C102.249 125.963 102.279 128.622 104.552 128.369C106.423 128.102 106.334 125.413 104.062 125.784Z" fill="#001434"/>
</svg>
